<svg id="Group_301" data-name="Group 301" xmlns="http://www.w3.org/2000/svg" width="14.457" height="13.322" viewBox="0 0 14.457 13.322">
  <path id="Path_171" data-name="Path 171" d="M.008,63.76H2v3.285H12.447V63.761h2c0,.051.009.1.009.145v4.023a1,1,0,0,1-1.1,1.064H1.087A.987.987,0,0,1,.04,68.276,1.161,1.161,0,0,1,0,67.963v-4.08A.651.651,0,0,1,.008,63.76Z" transform="translate(0 -55.671)"/>
  <g id="Group_287" data-name="Group 287" transform="translate(2.34 0)">
    <g id="Group_286" data-name="Group 286">
      <g id="Path_172" data-name="Path 172">
        <path id="Path_173" data-name="Path 173" d="M-162.9,59.145l-1.421-1.421,4.84-4.84,4.839,4.84-1.421,1.421-3.419-3.42Z" transform="translate(164.317 -52.884)"/>
      </g>
    </g>
    <rect id="Rectangle_381" data-name="Rectangle 381" width="1.95" height="7.02" transform="translate(3.9 1.883)"/>
  </g>
</svg>
