<svg xmlns="http://www.w3.org/2000/svg" width="28.973" height="42.942" viewBox="0 0 28.973 42.942">
  <g id="noun_certification_564781" transform="translate(12.995 102.25)">
    <g id="Group_547" data-name="Group 547" transform="translate(-12.995 -102.25)">
      <path id="Path_270" data-name="Path 270" d="M156.671,146.9h-17.58a1.192,1.192,0,0,0,0,2.383h17.58a1.192,1.192,0,0,0,0-2.383Z" transform="translate(-133.404 -134.653)" fill="#312f2c"/>
      <path id="Path_271" data-name="Path 271" d="M234.945,73.9H224.592a1.192,1.192,0,0,0,0,2.383h10.353a1.192,1.192,0,0,0,0-2.383Z" transform="translate(-211.677 -67.823)" fill="#312f2c"/>
      <path id="Path_272" data-name="Path 272" d="M110.216,2H93.71a3.413,3.413,0,0,0-2.434,1.006l-5.57,5.578A3.413,3.413,0,0,0,84.7,11.018V36.982a3.452,3.452,0,0,0,3.448,3.448h6.5v3.313a1.207,1.207,0,0,0,.634,1.056,1.166,1.166,0,0,0,1.226-.068l2.679-1.8,2.679,1.8a1.574,1.574,0,0,0,1.225.068,1.2,1.2,0,0,0,.634-1.056V40.43h6.5a3.452,3.452,0,0,0,3.448-3.448V5.448A3.465,3.465,0,0,0,110.216,2ZM91.588,6.074V8.9H88.765Zm9.736,35.43-1.488-1a1.192,1.192,0,0,0-.668-.2,1.212,1.212,0,0,0-.668.2l-1.488,1V36.018a8.822,8.822,0,0,0,4.3,0V41.5Zm-2.147-7.6a6.337,6.337,0,0,1-5.857-3.939h1.91a1.192,1.192,0,1,0,0-2.383H92.847v-.008a6.239,6.239,0,0,1,.372-2.113h4.834a1.192,1.192,0,0,0,0-2.383H94.732a6.327,6.327,0,1,1,4.446,10.827Zm12.1,3.076a1.057,1.057,0,0,1-1.056,1.056h-6.5V34.987a8.707,8.707,0,1,0-9.06.008v3.043h-6.5a1.057,1.057,0,0,1-1.056-1.056V11.28h5.7A1.19,1.19,0,0,0,94,10.088v-5.7h16.244A1.057,1.057,0,0,1,111.3,5.44V36.982Z" transform="translate(-84.7 -2)" fill="#312f2c"/>
    </g>
  </g>
</svg>
