<svg xmlns="http://www.w3.org/2000/svg" width="45.352" height="45.35" viewBox="0 0 45.352 45.35">
  <g id="noun_unlink_1216154" transform="translate(-0.663 -0.599)">
    <g id="Group_548" data-name="Group 548" transform="translate(0.663 0.599)">
      <path id="Path_274" data-name="Path 274" d="M16.406,41.229,9.677,47.957a6.7,6.7,0,0,0,0,9.46l3.157,3.158a6.707,6.707,0,0,0,9.464,0l6.654-6.657a1.265,1.265,0,0,0-1.79-1.79l-6.654,6.656a4.172,4.172,0,0,1-5.886,0l-3.157-3.157a4.164,4.164,0,0,1,0-5.881l6.728-6.728a1.265,1.265,0,1,0-1.789-1.789Z" transform="translate(-4.166 -20.579)" fill="#312f2c"/>
      <path id="Path_275" data-name="Path 275" d="M62.114,17.193a6.646,6.646,0,0,0-1.96-4.731L57,9.306a6.64,6.64,0,0,0-4.73-1.961h0a6.642,6.642,0,0,0-4.73,1.961l-7.53,7.53a1.265,1.265,0,0,0,1.79,1.79l7.531-7.53a4.133,4.133,0,0,1,2.942-1.219h0A4.126,4.126,0,0,1,55.21,11.1l3.154,3.156a4.159,4.159,0,0,1,0,5.881l-7.209,7.2a1.266,1.266,0,0,0,1.789,1.791l7.209-7.207A6.655,6.655,0,0,0,62.114,17.193Z" transform="translate(-20.005 -3.947)" fill="#312f2c"/>
      <path id="Path_276" data-name="Path 276" d="M10.86,10.792a1.267,1.267,0,0,0,0,1.79l6.085,6.087a1.265,1.265,0,0,0,1.789-1.79L12.65,10.792A1.265,1.265,0,0,0,10.86,10.792Z" transform="translate(-5.54 -5.474)" fill="#312f2c"/>
      <path id="Path_277" data-name="Path 277" d="M1.959,36.476,10.4,36.27a1.266,1.266,0,0,0-.03-2.531h-.032L1.9,33.944a1.266,1.266,0,0,0,.03,2.531Z" transform="translate(-0.663 -17.046)" fill="#312f2c"/>
      <path id="Path_278" data-name="Path 278" d="M34.065,1.843l-.142,8.378a1.267,1.267,0,0,0,1.245,1.287h.023a1.265,1.265,0,0,0,1.264-1.244L36.6,1.886A1.266,1.266,0,0,0,35.352.6,1.286,1.286,0,0,0,34.065,1.843Z" transform="translate(-17.17 -0.599)" fill="#312f2c"/>
      <path id="Path_279" data-name="Path 279" d="M64.136,65.862l6.086,6.086a1.265,1.265,0,0,0,1.789-1.79l-6.085-6.085a1.265,1.265,0,0,0-1.79,1.789Z" transform="translate(-31.98 -31.916)" fill="#312f2c"/>
      <path id="Path_280" data-name="Path 280" d="M53.6,68.861A1.265,1.265,0,0,0,52.333,70.1l-.2,8.435a1.266,1.266,0,0,0,1.235,1.3h.032a1.267,1.267,0,0,0,1.265-1.236l.2-8.435a1.267,1.267,0,0,0-1.236-1.3Z" transform="translate(-26.205 -34.477)" fill="#312f2c"/>
      <path id="Path_281" data-name="Path 281" d="M78.687,52.066h-.023l-8.376.145a1.265,1.265,0,0,0,.021,2.531h.023l8.376-.144a1.266,1.266,0,0,0-.021-2.532Z" transform="translate(-34.6 -26.142)" fill="#312f2c"/>
    </g>
  </g>
</svg>
