<svg id="noun_contract_3092044" xmlns="http://www.w3.org/2000/svg" width="55.647" height="67.444" viewBox="0 0 55.647 67.444">
  <g id="Group_514" data-name="Group 514">
    <path id="Path_264" data-name="Path 264" d="M56.5,2.5H20.821A10.009,10.009,0,0,0,10.8,12.521v47.4A10.009,10.009,0,0,0,20.821,69.944H56.426A10.009,10.009,0,0,0,66.446,59.923v-47.4A9.9,9.9,0,0,0,56.5,2.5Zm5.117,57.494a5.217,5.217,0,0,1-5.188,5.188H20.821a5.217,5.217,0,0,1-5.188-5.188V12.521a5.217,5.217,0,0,1,5.188-5.188H56.426a5.217,5.217,0,0,1,5.188,5.188Z" transform="translate(-10.8 -2.5)" fill="#f79554"/>
    <path id="Path_265" data-name="Path 265" d="M56.685,72.6H30.816a2.416,2.416,0,1,0,0,4.833H56.685A2.4,2.4,0,0,0,59.1,75.016,2.442,2.442,0,0,0,56.685,72.6Z" transform="translate(-15.892 -22.781)" fill="#f79554"/>
    <path id="Path_268" data-name="Path 268" d="M56.685,72.6H30.816a2.416,2.416,0,1,0,0,4.833H56.685A2.4,2.4,0,0,0,59.1,75.016,2.442,2.442,0,0,0,56.685,72.6Z" transform="translate(-15.892 -45.177)" fill="#f79554"/>
    <path id="Path_266" data-name="Path 266" d="M56.685,57.4H30.816a2.416,2.416,0,1,0,0,4.833H56.685A2.4,2.4,0,0,0,59.1,59.816,2.442,2.442,0,0,0,56.685,57.4Z" transform="translate(-15.892 -18.384)" fill="#f79554"/>
    <path id="Path_267" data-name="Path 267" d="M56.685,57.4H30.816a2.416,2.416,0,1,0,0,4.833H56.685A2.4,2.4,0,0,0,59.1,59.816,2.442,2.442,0,0,0,56.685,57.4Z" transform="translate(-15.892 -40.78)" fill="#f79554"/>
  </g>
</svg>
