<svg id="noun_Email_1560076" xmlns="http://www.w3.org/2000/svg" width="68.797" height="45.865" viewBox="0 0 68.797 45.865">
  <g id="Group_640" data-name="Group 640" transform="translate(-5 -972.362)">
    <path id="Path_297" data-name="Path 297" d="M8.058,972.362A3.1,3.1,0,0,0,5,975.42v39.75a3.1,3.1,0,0,0,3.058,3.058H70.74a3.1,3.1,0,0,0,3.058-3.058V975.42a3.1,3.1,0,0,0-3.058-3.058H8.058Zm4.539,4.587H66.2l-26.8,22.98Zm-3.01,3.416L25.711,994.2,9.586,1010.32Zm59.624,0v29.956L53.087,994.2ZM29.2,997.206l8.719,7.453a2.293,2.293,0,0,0,2.962,0l8.719-7.453,16.435,16.435H12.764L29.2,997.206Z" fill="#f79554"/>
  </g>
</svg>
