<svg id="Layer_2" data-name="Layer 2" xmlns="http://www.w3.org/2000/svg" width="36.949" height="41.198" viewBox="0 0 36.949 41.198">
  <g id="Group_504" data-name="Group 504" transform="translate(0 0)">
    <rect id="Rectangle_600" data-name="Rectangle 600" width="3.809" height="11.66" transform="translate(27.904 20.819)" fill="#312f2c"/>
    <rect id="Rectangle_601" data-name="Rectangle 601" width="3.809" height="11.66" transform="translate(16.57 20.819)" fill="#312f2c"/>
    <rect id="Rectangle_602" data-name="Rectangle 602" width="3.809" height="11.66" transform="translate(5.23 20.819)" fill="#312f2c"/>
    <path id="Path_252" data-name="Path 252" d="M17.177,29.1h1.03V26.16h-7.3V29.1h6.267Z" transform="translate(-7.421 -9.703)" fill="#312f2c"/>
    <path id="Path_253" data-name="Path 253" d="M18.207,50.71h-7.3v2.935h7.3Z" transform="translate(-7.421 -16.809)" fill="#312f2c"/>
    <path id="Path_254" data-name="Path 254" d="M26.86,29.1h7.3V26.16h-7.3Z" transform="translate(-12.038 -9.703)" fill="#312f2c"/>
    <path id="Path_255" data-name="Path 255" d="M25.256,4.627a.711.711,0,0,1,.753,0L38.8,12.806h2.466L25.632,3,10,12.806h2.459Z" transform="translate(-7.158 -3)" fill="#312f2c"/>
    <path id="Path_256" data-name="Path 256" d="M42.82,29.1h7.3V26.16h-7.3Z" transform="translate(-16.657 -9.703)" fill="#312f2c"/>
    <path id="Path_257" data-name="Path 257" d="M27.612,7.32,16.84,14.056H38.384Z" transform="translate(-9.137 -4.25)" fill="#312f2c"/>
    <path id="Path_258" data-name="Path 258" d="M26.86,53.645h7.3V50.71h-7.3Z" transform="translate(-12.038 -16.809)" fill="#312f2c"/>
    <path id="Path_259" data-name="Path 259" d="M8.45,18.8v3.809H41.918V18.8ZM12.1,21.578a.874.874,0,1,1,.874-.874.874.874,0,0,1-.874.874Zm6.544,0A.874.874,0,1,1,19.5,20.7a.874.874,0,0,1-.853.874Zm6.537,0a.874.874,0,1,1,.874-.874.874.874,0,0,1-.874.874Zm6.537,0a.874.874,0,1,1,.874-.874.874.874,0,0,1-.874.874Zm6.544,0a.874.874,0,1,1,.874-.874A.874.874,0,0,1,38.265,21.578Z" transform="translate(-6.709 -7.573)" fill="#312f2c"/>
    <path id="Path_260" data-name="Path 260" d="M31.452,56.84H6v2.942H42.949V56.84h-11.5Z" transform="translate(-6 -18.583)" fill="#312f2c"/>
    <path id="Path_261" data-name="Path 261" d="M43.85,50.71H42.82v2.935h7.3V50.71H43.85Z" transform="translate(-16.657 -16.809)" fill="#312f2c"/>
  </g>
</svg>
