<svg xmlns="http://www.w3.org/2000/svg" width="52.038" height="32.448" viewBox="0 0 52.038 32.448">
  <g id="noun_marriage_2526770" transform="translate(65.955 52.055)">
    <g id="Ebene_1" data-name="Ebene 1" transform="translate(-65.955 -52.055)">
      <path id="Path_273" data-name="Path 273" d="M53.166,29.66a16.2,16.2,0,0,0-9.771,3.3,16.224,16.224,0,1,0,0,25.843A16.216,16.216,0,1,0,53.166,29.66ZM19,45.884A14.6,14.6,0,0,1,42.127,34.007c-.367.343-.726.686-1.045,1.045-.168.191-.319.391-.479.59a12.268,12.268,0,0,0-6.987-2.162,12.4,12.4,0,0,0,0,24.807,12.268,12.268,0,0,0,7.665-2.648,11.438,11.438,0,0,0,1.6-1.508,12.411,12.411,0,0,0,1.452-14.485,10.586,10.586,0,0,1,.766-.941,10.369,10.369,0,0,1,.8-.8,14.453,14.453,0,0,1,2.393,7.976,14.684,14.684,0,0,1-3.773,9.771,15.419,15.419,0,0,1-1.6,1.523A14.621,14.621,0,0,1,19,45.884ZM39.67,36.926a16.1,16.1,0,0,0,0,17.923,10.7,10.7,0,0,1-6.038,1.843,10.808,10.808,0,1,1,0-21.616A10.68,10.68,0,0,1,39.67,36.926ZM43.4,41.258a10.84,10.84,0,0,1,0,9.253,10.84,10.84,0,0,1,0-9.253Zm3.733-4.339a10.7,10.7,0,0,1,6.038-1.843,10.808,10.808,0,1,1,0,21.616,10.68,10.68,0,0,1-6.046-1.851,16.1,16.1,0,0,0,0-17.923Zm6.038,23.594a14.637,14.637,0,0,1-8.511-2.752c.367-.343.726-.686,1.045-1.045.168-.191.319-.391.479-.59a12.268,12.268,0,0,0,6.987,2.162,12.4,12.4,0,1,0,0-24.807A12.268,12.268,0,0,0,45.5,36.129a11.438,11.438,0,0,0-1.6,1.508,12.411,12.411,0,0,0-1.452,14.485,9.571,9.571,0,0,1-.758.941,10.369,10.369,0,0,1-.8.8,14.453,14.453,0,0,1-2.393-7.976,14.685,14.685,0,0,1,3.773-9.771,15.418,15.418,0,0,1,1.6-1.523,14.629,14.629,0,1,1,9.284,25.923Z" transform="translate(-17.361 -29.66)" fill="#312f2c"/>
    </g>
  </g>
</svg>
