<svg xmlns="http://www.w3.org/2000/svg" width="36.287" height="34.962" viewBox="0 0 36.287 34.962">
  <g id="Group_505" data-name="Group 505" transform="translate(363.333 353.975)">
    <path id="Path_262" data-name="Path 262" d="M-347.936-352.29a3.081,3.081,0,0,1,5.493,0l3.945,8.04,8.839,1.3a3.046,3.046,0,0,1,1.7,5.193l-6.392,6.292,1.5,8.839a3.05,3.05,0,0,1-4.444,3.2l-7.89-4.095-7.89,4.145a3.05,3.05,0,0,1-4.444-3.2l1.5-8.839-6.392-6.292a3.055,3.055,0,0,1,1.7-5.193l8.789-1.3Zm2.746,1.348-4.644,9.438-10.387,1.548,7.49,7.391-1.748,10.437,9.288-4.894,9.288,4.894-1.748-10.437,7.49-7.391-10.387-1.548Z" transform="translate(0 0)" fill="#312f2c" fill-rule="evenodd"/>
  </g>
</svg>
