<svg xmlns="http://www.w3.org/2000/svg" width="30.21" height="39.75" viewBox="0 0 30.21 39.75">
  <g id="Group_2762" data-name="Group 2762" transform="translate(-74.5 -1668.159)">
    <path id="Path_248" data-name="Path 248" d="M11,5.8v38.16a.8.8,0,0,0,.8.8H37.561A3.653,3.653,0,0,0,41.21,41.1V8.649A3.653,3.653,0,0,0,37.561,5H11.8A.8.8,0,0,0,11,5.8Zm1.59.8H37.561A2.062,2.062,0,0,1,39.62,8.649V41.1a2.062,2.062,0,0,1-2.059,2.059H12.59Z" transform="translate(63.5 1663.159)" fill="#312f2c"/>
    <path id="Path_249" data-name="Path 249" d="M27.13,10A11.13,11.13,0,1,0,38.26,21.13,11.143,11.143,0,0,0,27.13,10Zm-3.141,2.132a12.838,12.838,0,0,0-1.61,4.246,12.838,12.838,0,0,0-4.246,1.61A9.572,9.572,0,0,1,23.989,12.132ZM22.1,18.078c-.09.721-.147,1.475-.171,2.257H17.868C18.451,19.457,19.955,18.614,22.1,18.078Zm-4.228,3.847h4.057c.024.782.081,1.536.171,2.257C19.955,23.646,18.451,22.8,17.868,21.925Zm.264,2.346a12.838,12.838,0,0,0,4.246,1.61,12.838,12.838,0,0,0,1.61,4.246A9.572,9.572,0,0,1,18.132,24.271Zm8.2,6.121c-.878-.583-1.721-2.087-2.257-4.228.721.09,1.475.147,2.257.171Zm0-5.646a21.93,21.93,0,0,1-2.586-.235,21.93,21.93,0,0,1-.235-2.586h2.821Zm0-4.411H23.514a21.93,21.93,0,0,1,.235-2.586,21.93,21.93,0,0,1,2.586-.235Zm0-4.41c-.782.024-1.536.081-2.257.171.536-2.141,1.379-3.645,2.257-4.228Zm1.59-4.057c.878.583,1.721,2.087,2.257,4.228-.721-.09-1.475-.147-2.257-.171Zm0,5.646a21.93,21.93,0,0,1,2.586.235,21.93,21.93,0,0,1,.235,2.586H27.925Zm0,4.411h2.821a21.93,21.93,0,0,1-.235,2.586,21.93,21.93,0,0,1-2.586.235Zm0,8.467V26.335c.782-.024,1.536-.081,2.257-.171C29.646,28.3,28.8,29.809,27.925,30.392Zm2.346-.264a12.838,12.838,0,0,0,1.61-4.246,12.838,12.838,0,0,0,4.246-1.61A9.572,9.572,0,0,1,30.271,30.128Zm1.893-5.945c.09-.721.147-1.475.171-2.257h4.057C35.809,22.8,34.3,23.646,32.164,24.182Zm4.228-3.847H32.335c-.024-.782-.081-1.536-.171-2.257C34.3,18.614,35.809,19.457,36.392,20.335Zm-4.51-3.957a12.838,12.838,0,0,0-1.61-4.246,9.572,9.572,0,0,1,5.856,5.856A12.838,12.838,0,0,0,31.882,16.378Z" transform="translate(62.475 1662.134)" fill="#312f2c"/>
    <path id="Path_250" data-name="Path 250" d="M36.248,44H18.858a.8.8,0,1,0,0,1.59H36.248a.8.8,0,0,0,0-1.59Z" transform="translate(62.053 1655.164)" fill="#312f2c"/>
    <path id="Path_251" data-name="Path 251" d="M33.622,48H23.309a.8.8,0,1,0,0,1.59H33.622a.8.8,0,0,0,0-1.59Z" transform="translate(61.139 1654.344)" fill="#312f2c"/>
  </g>
</svg>
