<svg xmlns="http://www.w3.org/2000/svg" width="40.209" height="39.694" viewBox="0 0 40.209 39.694">
  <path id="Path_263" data-name="Path 263" d="M36.507,14.026V3H9.7V14.026L3,18.436V42.694H43.209V18.436Zm2.674,4.41L36.507,20.2v-3.52Zm-4.908,3.23L23.1,29.017,11.935,21.667V5.205H34.274ZM9.7,16.677V20.2l-2.674-1.76ZM40.975,40.489H5.234V19.907L23.1,31.668,40.975,19.907ZM26.936,16.14A3.626,3.626,0,0,1,27.953,18.9a3.911,3.911,0,0,1-3.66,3.835v2.319H22.059V22.785a5.768,5.768,0,0,1-3.8-1.656l1.663-1.647a4.332,4.332,0,0,0,3.182,1.1c1.519,0,2.333-.567,2.333-1.607a1.425,1.425,0,0,0-.407-1.1,1.968,1.968,0,0,0-1.166-.455L22.27,17.2a4.5,4.5,0,0,1-2.554-1.08,3.41,3.41,0,0,1-.945-2.557,3.785,3.785,0,0,1,3.288-3.806V7.41h2.234V9.678a5.33,5.33,0,0,1,3.325,1.454l-1.627,1.589a3.693,3.693,0,0,0-2.7-.892c-1.37,0-2.034.75-2.034,1.642a1.252,1.252,0,0,0,.389.933,2.265,2.265,0,0,0,1.221.513l1.555.219a4.419,4.419,0,0,1,2.518,1Z" transform="translate(-3 -3)" fill="#312f2c"/>
</svg>
