<svg xmlns="http://www.w3.org/2000/svg" width="41.006" height="33.005" viewBox="0 0 41.006 33.005">
  <path id="Path_246" data-name="Path 246" d="M29.506,969.362a1.755,1.755,0,0,1,.922.313l19,15a1.791,1.791,0,0,1,.328,2.172,1.553,1.553,0,0,1-2.172.188L29.506,972.769,11.425,987.037a1.536,1.536,0,0,1-2.172-.188,1.7,1.7,0,0,1,.328-2.172l6.923-5.47v-8.345a1.5,1.5,0,0,1,1.5-1.5h4a1.5,1.5,0,0,1,1.5,1.5v2.829l5.079-4.016A1.53,1.53,0,0,1,29.506,969.362Zm-9,3h-1v4.485l1-.8Zm21,11.642,3,2.375v14.487a1.5,1.5,0,0,1-1.5,1.5h-9a1.5,1.5,0,0,1-1.5-1.5v-5.5a3,3,0,1,0-6,0v5.5a1.5,1.5,0,0,1-1.5,1.5H16a1.5,1.5,0,0,1-1.5-1.5V986.38l3-2.375v15.362h6v-4a6,6,0,1,1,12,0v4h6Z" transform="translate(-9 -969.362)" fill="#312f2c"/>
</svg>
