<svg id="Group_514" data-name="Group 514" xmlns="http://www.w3.org/2000/svg" width="27.071" height="32.81" viewBox="0 0 27.071 32.81">
  <path id="Path_264" data-name="Path 264" d="M33.031,2.5H15.675A4.869,4.869,0,0,0,10.8,7.375v23.06a4.869,4.869,0,0,0,4.875,4.875H33a4.869,4.869,0,0,0,4.875-4.875V7.375A4.818,4.818,0,0,0,33.031,2.5ZM35.52,30.47A2.538,2.538,0,0,1,33,32.994H15.675a2.538,2.538,0,0,1-2.524-2.524V7.375a2.538,2.538,0,0,1,2.524-2.524H33A2.538,2.538,0,0,1,35.52,7.375Z" transform="translate(-10.8 -2.5)" fill="#312f2c"/>
  <path id="Path_265" data-name="Path 265" d="M42.16,72.6H29.575a1.175,1.175,0,1,0,0,2.351H42.16a1.166,1.166,0,0,0,1.175-1.175A1.188,1.188,0,0,0,42.16,72.6Z" transform="translate(-22.315 -48.364)" fill="#312f2c"/>
  <path id="Path_268" data-name="Path 268" d="M42.16,72.6H29.575a1.175,1.175,0,1,0,0,2.351H42.16a1.166,1.166,0,0,0,1.175-1.175A1.188,1.188,0,0,0,42.16,72.6Z" transform="translate(-22.315 -59.259)" fill="#312f2c"/>
  <path id="Path_266" data-name="Path 266" d="M42.16,57.4H29.575a1.175,1.175,0,1,0,0,2.351H42.16a1.166,1.166,0,0,0,1.175-1.175A1.188,1.188,0,0,0,42.16,57.4Z" transform="translate(-22.315 -38.419)" fill="#312f2c"/>
  <path id="Path_267" data-name="Path 267" d="M42.16,57.4H29.575a1.175,1.175,0,1,0,0,2.351H42.16a1.166,1.166,0,0,0,1.175-1.175A1.188,1.188,0,0,0,42.16,57.4Z" transform="translate(-22.315 -49.315)" fill="#312f2c"/>
</svg>
