<svg xmlns="http://www.w3.org/2000/svg" width="57.875" height="54.97" viewBox="0 0 57.875 54.97">
  <g id="Component_182_2" data-name="Component 182 – 2" transform="translate(1 1)">
    <g id="noun_Self-Development_1204704" transform="translate(0 -1.3)">
      <g id="Group_644" data-name="Group 644" transform="translate(0 1.3)">
        <path id="Path_299" data-name="Path 299" d="M55.875,42.759a11.446,11.446,0,0,0-11.4-11.4,11.3,11.3,0,0,0-5.811,1.565,24.907,24.907,0,0,0-9.5-5.252A13.883,13.883,0,0,0,23.132,1.3,13.952,13.952,0,0,0,17.1,27.785,22.934,22.934,0,0,0,0,50.023v3.129A1.12,1.12,0,0,0,1.118,54.27h44.03C49.952,54.27,55.875,49.576,55.875,42.759ZM11.4,15.269A11.678,11.678,0,1,1,23.132,26.891,11.782,11.782,0,0,1,11.4,15.269ZM37.66,52.035H2.235V50.023a20.937,20.937,0,0,1,20.9-20.9,20.563,20.563,0,0,1,13.745,5.14h0a11.543,11.543,0,0,0,.782,17.768Zm7.264,0a9.224,9.224,0,1,1,8.828-9.164A9.527,9.527,0,0,1,44.924,52.035Z" transform="translate(0 -1.3)" fill="#f79554" stroke="#f69553" stroke-width="2"/>
      </g>
      <g id="Group_645" data-name="Group 645" transform="translate(-329.961 -234.727)">
        <path id="Path_298" data-name="Path 298" d="M0,2.819,2.588,6.264,9.286,0" transform="translate(369.728 275.647) rotate(-7)" fill="none" stroke="#f79554" stroke-linecap="round" stroke-width="3"/>
      </g>
    </g>
  </g>
</svg>
