<svg xmlns="http://www.w3.org/2000/svg" width="58.276" height="58.276" viewBox="0 0 58.276 58.276">
  <g id="Group_2775" data-name="Group 2775" transform="translate(-197 -258)">
    <g id="Path_411" data-name="Path 411" transform="translate(197 258)" fill="#fff" stroke-linecap="round">
      <path d="M 29.13818359375 55.77636337280273 C 25.54095268249512 55.77636337280273 22.05264282226562 55.07240295410156 18.77017402648926 53.68403244018555 C 15.59841346740723 52.34249496459961 12.74935340881348 50.42143249511719 10.30214405059814 47.97422409057617 C 7.854933738708496 45.52701187133789 5.933873653411865 42.67796325683594 4.592333793640137 39.50620269775391 C 3.2039635181427 36.22372436523438 2.500003576278687 32.73541259765625 2.500003576278687 29.13818359375 C 2.500003576278687 25.54095268249512 3.2039635181427 22.05264282226562 4.592333793640137 18.77017402648926 C 5.933873653411865 15.59841346740723 7.854933738708496 12.74935340881348 10.30214405059814 10.30214405059814 C 12.74935340881348 7.854933738708496 15.59841346740723 5.933873653411865 18.77017402648926 4.592333793640137 C 22.05264282226562 3.2039635181427 25.54095268249512 2.500003576278687 29.13818359375 2.500003576278687 C 32.73541259765625 2.500003576278687 36.22372436523438 3.2039635181427 39.50620269775391 4.592333793640137 C 42.67796325683594 5.933873653411865 45.52701187133789 7.854933738708496 47.97422409057617 10.30214405059814 C 50.42143249511719 12.74935340881348 52.34249496459961 15.59841346740723 53.68403244018555 18.77017402648926 C 55.07240295410156 22.05264282226562 55.77636337280273 25.54095268249512 55.77636337280273 29.13818359375 C 55.77636337280273 32.73541259765625 55.07240295410156 36.22372436523438 53.68403244018555 39.50620269775391 C 52.34249496459961 42.67796325683594 50.42143249511719 45.52701187133789 47.97422409057617 47.97422409057617 C 45.52701187133789 50.42143249511719 42.67796325683594 52.34249496459961 39.50620269775391 53.68403244018555 C 36.22372436523438 55.07240295410156 32.73541259765625 55.77636337280273 29.13818359375 55.77636337280273 Z" stroke="none"/>
      <path d="M 29.13818359375 4.999996185302734 C 25.87734603881836 4.999996185302734 22.71670913696289 5.637508392333984 19.74404525756836 6.894847869873047 C 16.87028503417969 8.110347747802734 14.28833389282227 9.851482391357422 12.06990814208984 12.06990814208984 C 9.851482391357422 14.28833389282227 8.110347747802734 16.87028503417969 6.894847869873047 19.74404525756836 C 5.637508392333984 22.71670913696289 4.999996185302734 25.87734603881836 4.999996185302734 29.13818359375 C 4.999996185302734 32.39902114868164 5.637508392333984 35.55965805053711 6.894847869873047 38.53232192993164 C 8.110347747802734 41.40608215332031 9.851482391357422 43.98803329467773 12.06990814208984 46.20645904541016 C 14.28833389282227 48.42488479614258 16.87028503417969 50.16602325439453 19.74404525756836 51.38152313232422 C 22.71670913696289 52.63885879516602 25.87734603881836 53.27637100219727 29.13818359375 53.27637100219727 C 32.39902114868164 53.27637100219727 35.55965805053711 52.63885879516602 38.53232192993164 51.38152313232422 C 41.40608215332031 50.16602325439453 43.98803329467773 48.42488479614258 46.20645904541016 46.20645904541016 C 48.42488479614258 43.98803329467773 50.16602325439453 41.40608215332031 51.38152313232422 38.53232192993164 C 52.63885879516602 35.55965805053711 53.27637100219727 32.39902114868164 53.27637100219727 29.13818359375 C 53.27637100219727 25.87734603881836 52.63885879516602 22.71670913696289 51.38152313232422 19.74404525756836 C 50.16602325439453 16.87028503417969 48.42488479614258 14.28833389282227 46.20645904541016 12.06990814208984 C 43.98803329467773 9.851482391357422 41.40608215332031 8.110347747802734 38.53232192993164 6.894847869873047 C 35.55965805053711 5.637508392333984 32.39902114868164 4.999996185302734 29.13818359375 4.999996185302734 M 29.13818359375 -3.814697265625e-06 C 45.23075866699219 -3.814697265625e-06 58.27637100219727 13.04560852050781 58.27637100219727 29.13818359375 C 58.27637100219727 45.23075866699219 45.23075866699219 58.27637100219727 29.13818359375 58.27637100219727 C 13.04560852050781 58.27637100219727 -3.814697265625e-06 45.23075866699219 -3.814697265625e-06 29.13818359375 C -3.814697265625e-06 13.04560852050781 13.04560852050781 -3.814697265625e-06 29.13818359375 -3.814697265625e-06 Z" stroke="none" fill="#f79554"/>
    </g>
    <path id="Path_298" data-name="Path 298" d="M0,8.288l7.607,10.13L27.3,0" transform="translate(212.385 279.836) rotate(-7)" fill="none" stroke="#f79554" stroke-linecap="round" stroke-width="5"/>
  </g>
</svg>
