<svg id="Component_184_2" data-name="Component 184 – 2" xmlns="http://www.w3.org/2000/svg" width="62" height="61" viewBox="0 0 62 61">
  <g id="Ellipse_135" data-name="Ellipse 135" transform="translate(18)" fill="none" stroke="#f79554" stroke-width="5">
    <ellipse cx="13" cy="12.5" rx="13" ry="12.5" stroke="none"/>
    <ellipse cx="13" cy="12.5" rx="10.5" ry="10" fill="none"/>
  </g>
  <g id="Path_412" data-name="Path 412" transform="translate(37 36)" fill="none">
    <path d="M12.5,0A12.5,12.5,0,1,1,0,12.5,12.5,12.5,0,0,1,12.5,0Z" stroke="none"/>
    <path d="M 12.5 5 C 8.364490509033203 5 5 8.364490509033203 5 12.5 C 5 16.6355094909668 8.364490509033203 20 12.5 20 C 16.6355094909668 20 20 16.6355094909668 20 12.5 C 20 8.364490509033203 16.6355094909668 5 12.5 5 M 12.5 0 C 19.40356063842773 0 25 5.596439361572266 25 12.5 C 25 19.40356063842773 19.40356063842773 25 12.5 25 C 5.596439361572266 25 0 19.40356063842773 0 12.5 C 0 5.596439361572266 5.596439361572266 0 12.5 0 Z" stroke="none" fill="#f79554"/>
  </g>
  <g id="Ellipse_137" data-name="Ellipse 137" transform="translate(0 36)" fill="none" stroke="#f79554" stroke-width="5">
    <circle cx="12.5" cy="12.5" r="12.5" stroke="none"/>
    <circle cx="12.5" cy="12.5" r="10" fill="none"/>
  </g>
  <path id="Path_294" data-name="Path 294" d="M12567.268,9989.829l-12.873,18.648" transform="translate(-12540.561 -9969.175)" fill="none" stroke="#f79554" stroke-width="5"/>
  <path id="Path_295" data-name="Path 295" d="M12554.394,9989.829l12.873,18.648" transform="translate(-12519.273 -9969.175)" fill="none" stroke="#f79554" stroke-width="5"/>
  <path id="Path_296" data-name="Path 296" d="M12556.947,10003.641h21.52" transform="translate(-12536.674 -9953.882)" fill="none" stroke="#f79554" stroke-width="5"/>
</svg>
