<svg id="Group" xmlns="http://www.w3.org/2000/svg" width="31.218" height="39.347" viewBox="0 0 31.218 39.347">
  <path id="Compound_Path" data-name="Compound Path" d="M13.879,44.8a1.328,1.328,0,0,0,1.495-.273l2.682-2.5,3.209,2.96a1.3,1.3,0,0,0,.879.364,1.381,1.381,0,0,0,.879-.364l3.165-2.96,3.165,2.96a1.285,1.285,0,0,0,1.759,0l3.209-2.96,2.638,2.5a1.031,1.031,0,0,0,1.319.273,1.379,1.379,0,0,0,.659-1.275V37.056l.528-.41,2.682,2.5a1.251,1.251,0,0,0,.923.364.768.768,0,0,0,.44-.091,1.33,1.33,0,0,0,.7-1.275V9.459a3.391,3.391,0,0,0-.922-2.473A3.152,3.152,0,0,0,40.918,6h-18.9a3.628,3.628,0,0,0-3.737,3.461v1.548H16.737A3.891,3.891,0,0,0,13,14.787V43.523a1.592,1.592,0,0,0,.879,1.275ZM20.034,9.459A1.844,1.844,0,0,1,22.013,7.82h18.9a1.424,1.424,0,0,1,1.134.452,1.535,1.535,0,0,1,.4,1.187V37.147l-2.2-2.095c-.352-.364-.44-.455-1.319-.319V14.787a3.54,3.54,0,0,0-3.3-3.78H20.034Zm-5.276,5.328a2.1,2.1,0,0,1,1.978-1.958h18.9c.967,0,1.539.956,1.539,1.958V42.521l-2.066-2.095A1.2,1.2,0,0,0,33.4,40.38L30.19,43.34l-3.121-2.96a1.369,1.369,0,0,0-1.759,0l-3.165,2.96-3.209-2.96a1.413,1.413,0,0,0-1.89.046l-2.286,2.095Z" transform="translate(-13 -5.997)" fill="#312f2c"/>
  <path id="Path" d="M29.376,37.552h4.966a.776.776,0,0,0,0-1.552H29.376a.776.776,0,1,0,0,1.552Z" transform="translate(-21.492 -22.239)" fill="#312f2c"/>
  <path id="Path-2" data-name="Path" d="M29.376,50.552H39A.776.776,0,1,0,39,49H29.376a.776.776,0,1,0,0,1.552Z" transform="translate(-21.192 -29.276)" fill="#312f2c"/>
  <path id="Path-3" data-name="Path" d="M29.376,63.552H39A.776.776,0,1,0,39,62H29.376a.776.776,0,1,0,0,1.552Z" transform="translate(-21.192 -36.314)" fill="#312f2c"/>
</svg>
